<?xml version="1.0" standalone="no"?>
<!DOCTYPE svg PUBLIC "-//W3C//DTD SVG 20010904//EN"
 "http://www.w3.org/TR/2001/REC-SVG-20010904/DTD/svg10.dtd">
<svg version="1.0" xmlns="http://www.w3.org/2000/svg"
 width="225.000000pt" height="225.000000pt" viewBox="0 0 225.000000 225.000000"
 preserveAspectRatio="xMidYMid meet">
<metadata>
Created by potrace 1.14, written by Peter Selinger 2001-2017
</metadata>
<g transform="translate(0.000000,225.000000) scale(0.100000,-0.100000)"
fill="#000000" stroke="none">
<path d="M156 2234 c-59 -21 -98 -56 -129 -112 l-27 -50 2 -964 3 -963 28 -42
c15 -24 46 -55 69 -70 l42 -28 960 -3 c675 -2 972 0 999 8 49 14 106 65 128
115 12 25 19 64 19 103 l0 62 -411 0 c-447 0 -452 1 -478 57 -8 16 -11 229
-11 677 0 646 0 654 -21 680 -26 33 -68 34 -97 3 -21 -22 -21 -30 -27 -507 -7
-548 -9 -564 -86 -678 -55 -84 -119 -138 -219 -186 -85 -41 -85 -41 -205 -41
l-120 0 -88 42 c-164 79 -275 226 -296 394 -15 115 20 172 105 172 66 0 92
-29 109 -124 18 -100 27 -122 81 -179 141 -151 388 -106 476 85 23 50 23 55
28 555 l5 505 27 46 c125 213 406 209 514 -9 l29 -57 3 -607 3 -608 340 0 339
0 -2 799 -3 799 -31 39 c-38 46 -85 79 -133 93 -23 6 -370 10 -961 9 -777 0
-931 -3 -964 -15z"/>
</g>
</svg>
